<svg xmlns="http://www.w3.org/2000/svg" xmlns:xlink="http://www.w3.org/1999/xlink" width="40" zoomAndPan="magnify" viewBox="0 0 30 30.000001" height="40" preserveAspectRatio="xMidYMid meet" version="1.0"><defs><clipPath id="e8a54b59fd"><path d="M 0.484375 0.0546875 L 29.515625 0.0546875 L 29.515625 29.03125 L 0.484375 29.03125 Z M 0.484375 0.0546875 " clip-rule="nonzero"/></clipPath></defs><g clip-path="url(#e8a54b59fd)"><path fill="#ffffff" d="M 29.515625 14.625 C 29.515625 6.574219 23.019531 0.0546875 15.003906 0.0546875 C 6.988281 0.0546875 0.488281 6.574219 0.488281 14.625 C 0.488281 21.457031 5.175781 27.191406 11.496094 28.765625 L 11.496094 19.078125 L 8.503906 19.078125 L 8.503906 14.625 L 11.496094 14.625 L 11.496094 12.707031 C 11.496094 7.746094 13.730469 5.449219 18.582031 5.449219 C 19.5 5.449219 21.085938 5.628906 21.734375 5.808594 L 21.734375 9.84375 C 21.394531 9.808594 20.796875 9.789062 20.058594 9.789062 C 17.679688 9.789062 16.761719 10.695312 16.761719 13.046875 L 16.761719 14.621094 L 21.5 14.621094 L 20.6875 19.074219 L 16.761719 19.074219 L 16.761719 29.085938 C 23.945312 28.214844 29.515625 22.070312 29.515625 14.621094 Z M 29.515625 14.625 " fill-opacity="1" fill-rule="nonzero"/></g></svg>