<svg xmlns="http://www.w3.org/2000/svg" xmlns:xlink="http://www.w3.org/1999/xlink" width="40" zoomAndPan="magnify" viewBox="0 0 30 30.000001" height="40" preserveAspectRatio="xMidYMid meet" version="1.0"><defs><clipPath id="eec5e2030e"><path d="M 1.644531 5.464844 L 29 5.464844 L 29 24.335938 L 1.644531 24.335938 Z M 1.644531 5.464844 " clip-rule="nonzero"/></clipPath></defs><g clip-path="url(#eec5e2030e)"><path fill="#ffffff" d="M 28.035156 8.417969 C 27.722656 7.257812 26.839844 6.351562 25.660156 6.039062 C 23.578125 5.464844 15.15625 5.464844 15.15625 5.464844 C 15.15625 5.464844 6.75 5.464844 4.667969 6.035156 C 3.507812 6.351562 2.605469 7.257812 2.273438 8.417969 C 1.722656 10.503906 1.722656 14.890625 1.722656 14.890625 C 1.722656 14.890625 1.722656 19.28125 2.273438 21.386719 C 2.605469 22.527344 3.507812 23.453125 4.667969 23.765625 C 6.75 24.335938 15.15625 24.335938 15.15625 24.335938 C 15.15625 24.335938 23.578125 24.335938 25.660156 23.765625 C 26.839844 23.453125 27.722656 22.527344 28.035156 21.386719 C 28.605469 19.28125 28.605469 14.894531 28.605469 14.894531 C 28.605469 14.894531 28.605469 10.503906 28.035156 8.417969 Z M 12.484375 18.945312 L 12.484375 10.859375 L 19.457031 14.894531 Z M 12.484375 18.945312 " fill-opacity="1" fill-rule="nonzero"/></g></svg>